<svg width="20" height="20" viewBox="0 0 20 20" fill="none" xmlns="http://www.w3.org/2000/svg">
<path fill-rule="evenodd" clip-rule="evenodd" d="M5.42251 17.3206C5.84451 17.3206 6.18751 17.6636 6.18751 18.0856C6.18751 18.5076 5.84451 18.8496 5.42251 18.8496C5.00051 18.8496 4.65851 18.5076 4.65851 18.0856C4.65851 17.6636 5.00051 17.3206 5.42251 17.3206Z" stroke="#222222" stroke-width="1.5" stroke-linecap="round" stroke-linejoin="round"/>
<path fill-rule="evenodd" clip-rule="evenodd" d="M16.6749 17.3206C17.0969 17.3206 17.4399 17.6636 17.4399 18.0856C17.4399 18.5076 17.0969 18.8496 16.6749 18.8496C16.2529 18.8496 15.9099 18.5076 15.9099 18.0856C15.9099 17.6636 16.2529 17.3206 16.6749 17.3206Z" stroke="#222222" stroke-width="1.5" stroke-linecap="round" stroke-linejoin="round"/>
<path d="M0.750122 0.750244L2.83012 1.11024L3.79312 12.5832C3.87112 13.5182 4.65212 14.2362 5.59012 14.2362H16.5021C17.3981 14.2362 18.1581 13.5782 18.2871 12.6902L19.2361 6.13224C19.3531 5.32324 18.7261 4.59924 17.9091 4.59924H3.16412" stroke="#222222" stroke-width="1.5" stroke-linecap="round" stroke-linejoin="round"/>
<path d="M12.1256 8.29712H14.8986" stroke="#222222" stroke-width="1.5" stroke-linecap="round" stroke-linejoin="round"/>
</svg>
